# Blender v2.83.1 OBJ File: 'jurgens_sylvia_justingame_rock2.blend'
# www.blender.org
mtllib jurgens_sylvia_justingame_rock2.mtl
o Cube_Cube.006
v 3.706894 -1.324201 1.840097
v 3.529626 2.352177 2.215075
v 3.049127 -0.430270 -1.782712
v 3.529626 2.352177 -0.855952
v 7.192434 -1.229200 2.614081
v 7.564004 2.269297 2.036135
v 6.994821 -1.347653 -1.377313
v 6.994821 2.352177 -0.855952
v 3.576308 -0.208845 2.121824
v 3.529626 1.118901 2.215075
v 3.529626 1.118901 -1.377313
v 3.529626 -0.114376 -2.759845
v 6.994821 1.118901 -1.377313
v 6.994821 -0.114376 -2.759845
v 7.586186 0.510281 3.018890
v 6.941498 -0.033971 2.809669
v 6.766621 -1.075716 -4.388368
v 4.444384 -1.332993 -4.267257
v 4.245747 -0.613156 -4.312583
v 4.395925 1.735562 -1.377313
v 5.262224 2.352177 -1.377313
v 6.513227 2.328948 -1.466079
v 4.384170 -1.301664 2.408974
v 4.827959 -1.207033 3.090867
v 6.141238 -1.222888 3.016458
v 6.128522 4.052104 2.215075
v 5.261577 3.480694 2.884711
v 3.840166 3.515414 2.741847
v 6.060734 0.891365 2.786806
v 5.452528 0.539361 2.632807
v 4.345857 0.295985 2.486602
v 6.180167 2.323903 3.390696
v 5.029142 2.402515 3.310555
v 4.424288 1.508559 2.673917
v 4.154372 -0.033090 -4.598765
v 5.262224 -0.114376 -5.518499
v 6.699902 -0.114376 -4.399019
v 4.395925 0.908224 -3.578984
v 5.262224 0.908224 -3.578984
v 6.128522 0.908224 -3.578984
v 3.216420 -0.892627 -0.732171
v 3.199249 -1.304749 0.165926
v 3.529626 -1.347653 1.316978
v 3.163007 3.419841 1.980844
v 3.163007 3.419841 1.082746
v 3.388461 3.131226 -0.321045
v 6.994821 -1.347653 1.316978
v 6.994821 -1.347653 0.418881
v 6.994821 -1.347653 -0.479216
v 7.132626 2.594502 -0.122011
v 7.622268 2.373122 0.278203
v 8.039324 2.458905 1.472886
v 7.539186 0.126177 -1.454839
v 8.265165 -0.294713 0.035344
v 8.265165 -0.294713 0.933441
v 8.265165 0.938563 -0.862753
v 8.950243 0.938563 0.035344
v 8.237324 0.834088 2.258346
v 3.096218 -0.208845 1.064023
v 3.096218 -0.208845 0.165926
v 3.096218 -0.208845 -0.732171
v 3.190140 1.913334 1.635518
v 2.826281 0.808735 0.767529
v 2.826281 0.808735 -0.130568
v 6.128522 4.141178 -0.479216
v 6.993915 4.459939 0.636955
v 6.638948 4.461057 1.769402
v 5.262224 4.370077 -0.479216
v 5.262224 5.199250 0.418881
v 5.262224 5.199250 1.316978
v 4.395925 3.524563 -0.479216
v 4.395925 4.582635 0.418881
v 4.459644 4.816527 1.613949
v 4.395925 -1.347653 -0.479216
v 4.395925 -1.347653 0.418881
v 4.395925 -1.347653 1.316978
v 5.262224 -1.347653 -0.479216
v 5.262224 -1.347653 0.418881
v 5.262224 -1.347653 1.316978
v 6.128522 -1.347653 -0.479216
v 6.128522 -1.347653 0.418881
v 6.128522 -1.347653 1.316978
vt 0.541667 0.187500
vt 0.625000 0.187500
vt 0.625000 0.250000
vt 0.541667 0.250000
vt 0.541667 0.437500
vt 0.625000 0.437500
vt 0.625000 0.500000
vt 0.541667 0.500000
vt 0.541667 0.687500
vt 0.625000 0.687500
vt 0.625000 0.750000
vt 0.541667 0.750000
vt 0.541667 0.937500
vt 0.625000 0.937500
vt 0.625000 1.000000
vt 0.541667 1.000000
vt 0.312500 0.687500
vt 0.375000 0.687500
vt 0.375000 0.750000
vt 0.312500 0.750000
vt 0.812500 0.687500
vt 0.875000 0.687500
vt 0.875000 0.750000
vt 0.812500 0.750000
vt 0.375000 0.937500
vt 0.458333 0.937500
vt 0.458333 1.000000
vt 0.375000 1.000000
vt 0.458333 0.687500
vt 0.458333 0.750000
vt 0.375000 0.437500
vt 0.458333 0.437500
vt 0.458333 0.500000
vt 0.375000 0.500000
vt 0.375000 0.187500
vt 0.458333 0.187500
vt 0.458333 0.250000
vt 0.375000 0.250000
vt 0.541667 0.312500
vt 0.458333 0.312500
vt 0.541667 0.375000
vt 0.458333 0.375000
vt 0.375000 0.312500
vt 0.375000 0.375000
vt 0.541667 0.812500
vt 0.458333 0.812500
vt 0.541667 0.875000
vt 0.458333 0.875000
vt 0.375000 0.812500
vt 0.375000 0.875000
vt 0.687500 0.687500
vt 0.687500 0.750000
vt 0.750000 0.687500
vt 0.750000 0.750000
vt 0.125000 0.687500
vt 0.187500 0.687500
vt 0.187500 0.750000
vt 0.125000 0.750000
vt 0.250000 0.687500
vt 0.250000 0.750000
vt 0.625000 0.812500
vt 0.625000 0.875000
vt 0.625000 0.312500
vt 0.625000 0.375000
vt 0.250000 0.500000
vt 0.312500 0.500000
vt 0.312500 0.562500
vt 0.250000 0.562500
vt 0.312500 0.625000
vt 0.250000 0.625000
vt 0.187500 0.500000
vt 0.187500 0.562500
vt 0.187500 0.625000
vt 0.125000 0.500000
vt 0.125000 0.562500
vt 0.125000 0.625000
vt 0.750000 0.500000
vt 0.812500 0.500000
vt 0.812500 0.562500
vt 0.750000 0.562500
vt 0.812500 0.625000
vt 0.750000 0.625000
vt 0.687500 0.500000
vt 0.687500 0.562500
vt 0.687500 0.625000
vt 0.625000 0.562500
vt 0.625000 0.625000
vt 0.458333 0.000000
vt 0.541667 0.000000
vt 0.541667 0.062500
vt 0.458333 0.062500
vt 0.541667 0.125000
vt 0.458333 0.125000
vt 0.375000 0.000000
vt 0.375000 0.062500
vt 0.375000 0.125000
vt 0.541667 0.562500
vt 0.458333 0.562500
vt 0.541667 0.625000
vt 0.458333 0.625000
vt 0.375000 0.562500
vt 0.375000 0.625000
vt 0.875000 0.500000
vt 0.875000 0.562500
vt 0.875000 0.625000
vt 0.625000 0.000000
vt 0.625000 0.062500
vt 0.625000 0.125000
vn -0.8696 0.1803 -0.4596
vn 0.8483 0.3059 -0.4321
vn 0.6183 0.3952 0.6794
vn -0.5365 -0.1143 0.8361
vn 0.0135 -0.9967 0.0800
vn -0.7070 0.4078 0.5779
vn -0.4989 -0.1443 0.8546
vn -0.3997 -0.0957 0.9116
vn 0.8638 -0.3625 0.3498
vn 0.6212 -0.6416 0.4499
vn 0.9926 -0.0423 -0.1141
vn 0.8312 0.4817 -0.2777
vn -0.9479 0.3177 -0.0245
vn -0.9388 0.1575 -0.3064
vn -0.8338 0.4484 -0.3220
vn -0.2123 0.8221 -0.5283
vn 0.2619 0.8005 -0.5391
vn -0.9155 -0.1361 -0.3785
vn -0.6547 -0.3206 -0.6845
vn 0.2495 -0.5481 -0.7983
vn -0.2161 -0.2988 0.9295
vn -0.0665 -0.3670 0.9279
vn -0.2338 -0.2875 0.9288
vn 0.2069 0.0308 0.9779
vn -0.0729 0.1849 0.9801
vn -0.4939 0.1833 0.8500
vn 0.5689 0.3317 0.7526
vn 0.1208 0.6669 0.7353
vn -0.0538 0.6711 0.7394
vn -0.0013 -0.9991 0.0431
vn 0.0354 -0.9969 0.0704
vn -0.0047 -0.9971 0.0756
vn 0.6457 0.4117 0.6431
vn 0.1342 0.4846 0.8644
vn -0.3817 0.0635 0.9221
vn -0.4936 0.6935 -0.5248
vn -0.3016 0.8474 -0.4371
vn -0.0140 0.8336 -0.5522
vn 0.0789 -0.9961 -0.0389
vn 0.0000 -1.0000 0.0000
vn -0.5597 -0.8286 -0.0104
vn -0.4204 -0.8872 -0.1901
vn -0.1544 -0.9627 -0.2224
vn -0.0186 -0.9997 -0.0179
vn -0.3388 0.4015 -0.8509
vn -0.5029 0.5959 -0.6261
vn -0.5224 0.8490 -0.0790
vn 0.0151 0.4427 -0.8965
vn 0.3285 0.7530 -0.5702
vn 0.4154 0.9068 0.0721
vn 0.7658 0.4645 -0.4447
vn 0.6979 0.3138 -0.6438
vn 0.8925 0.4493 -0.0406
vn -0.9050 -0.0685 0.4198
vn -0.9411 -0.1634 0.2961
vn -0.9666 -0.2564 0.0000
vn -0.8975 -0.2294 0.3766
vn -0.9650 -0.2145 0.1511
vn -0.9915 -0.1244 -0.0380
vn 0.6414 0.4027 -0.6530
vn 0.7663 -0.3782 -0.5194
vn 0.9108 -0.3633 0.1959
vn 0.9179 -0.3490 -0.1887
vn 0.6781 -0.6605 -0.3225
vn 0.6382 -0.7699 0.0000
vn -0.2536 0.4607 -0.8506
vn -0.6154 0.6526 -0.4420
vn -0.7212 0.6905 -0.0552
vn -0.0677 -0.9956 -0.0653
vn 0.5596 0.5061 -0.6563
vn 0.6214 0.6390 -0.4533
vn 0.8864 0.4562 0.0792
vn -0.8337 -0.0772 0.5468
vn -0.9837 0.0461 0.1739
vn -0.9764 0.1809 -0.1183
usemtl Rock
s off
f 64/1/1 46/2/1 4/3/1 11/4/1
f 40/5/2 22/6/2 8/7/2 13/8/2
f 58/9/3 52/10/3 6/11/3 15/12/3
f 34/13/4 28/14/4 2/15/4 10/16/4
f 82/17/5 47/18/5 5/19/5 25/20/5
f 73/21/6 44/22/6 2/23/6 28/24/6
f 23/25/7 31/26/7 9/27/7 1/28/7
f 31/26/8 34/13/8 10/16/8 9/27/8
f 47/18/9 55/29/9 16/30/9 5/19/9
f 55/29/10 58/9/10 15/12/10 16/30/10
f 17/31/11 37/32/11 14/33/11 7/34/11
f 37/32/12 40/5/12 13/8/12 14/33/12
f 41/35/13 61/36/13 12/37/13 3/38/13
f 61/36/14 64/1/14 11/4/14 12/37/14
f 12/37/15 11/4/15 38/39/15 35/40/15
f 35/40/16 38/39/16 39/41/16 36/42/16
f 36/42/17 39/41/17 40/5/17 37/32/17
f 3/38/18 12/37/18 35/40/18 19/43/18
f 19/43/19 35/40/19 36/42/19 18/44/19
f 18/44/20 36/42/20 37/32/20 17/31/20
f 16/30/21 15/12/21 32/45/21 29/46/21
f 29/46/22 32/45/22 33/47/22 30/48/22
f 30/48/23 33/47/23 34/13/23 31/26/23
f 5/19/24 16/30/24 29/46/24 25/49/24
f 25/49/25 29/46/25 30/48/25 24/50/25
f 24/50/26 30/48/26 31/26/26 23/25/26
f 52/10/27 67/51/27 26/52/27 6/11/27
f 67/51/28 70/53/28 27/54/28 26/52/28
f 70/53/29 73/21/29 28/24/29 27/54/29
f 43/55/30 76/56/30 23/57/30 1/58/30
f 76/56/31 79/59/31 24/60/31 23/57/31
f 79/59/32 82/17/32 25/20/32 24/60/32
f 15/12/33 6/11/33 26/61/33 32/45/33
f 32/45/34 26/61/34 27/62/34 33/47/34
f 33/47/35 27/62/35 28/14/35 34/13/35
f 11/4/36 4/3/36 20/63/36 38/39/36
f 38/39/37 20/63/37 21/64/37 39/41/37
f 39/41/38 21/64/38 22/6/38 40/5/38
f 18/65/39 17/66/39 80/67/39 77/68/39
f 77/68/40 80/67/40 81/69/40 78/70/40
f 78/70/40 81/69/40 82/17/40 79/59/40
f 19/71/41 18/65/41 77/68/41 74/72/41
f 74/72/40 77/68/40 78/70/40 75/73/40
f 75/73/40 78/70/40 79/59/40 76/56/40
f 3/74/42 19/71/42 74/72/42 41/75/42
f 41/75/43 74/72/43 75/73/43 42/76/43
f 42/76/44 75/73/44 76/56/44 43/55/44
f 21/77/45 20/78/45 71/79/45 68/80/45
f 68/80/46 71/79/46 72/81/46 69/82/46
f 69/82/47 72/81/47 73/21/47 70/53/47
f 22/83/48 21/77/48 68/80/48 65/84/48
f 65/84/49 68/80/49 69/82/49 66/85/49
f 66/85/50 69/82/50 70/53/50 67/51/50
f 8/7/51 22/83/51 65/84/51 50/86/51
f 50/86/52 65/84/52 66/85/52 51/87/52
f 51/87/53 66/85/53 67/51/53 52/10/53
f 9/88/54 10/89/54 62/90/54 59/91/54
f 59/91/55 62/90/55 63/92/55 60/93/55
f 60/93/56 63/92/56 64/1/56 61/36/56
f 1/94/57 9/88/57 59/91/57 43/95/57
f 43/95/58 59/91/58 60/93/58 42/96/58
f 42/96/59 60/93/59 61/36/59 41/35/59
f 14/33/60 13/8/60 56/97/60 53/98/60
f 53/98/61 56/97/61 57/99/61 54/100/61
f 54/100/62 57/99/62 58/9/62 55/29/62
f 7/34/63 14/33/63 53/98/63 49/101/63
f 49/101/64 53/98/64 54/100/64 48/102/64
f 48/102/65 54/100/65 55/29/65 47/18/65
f 20/78/66 4/103/66 46/104/66 71/79/66
f 71/79/67 46/104/67 45/105/67 72/81/67
f 72/81/68 45/105/68 44/22/68 73/21/68
f 17/66/69 7/34/69 49/101/69 80/67/69
f 80/67/40 49/101/40 48/102/40 81/69/40
f 81/69/40 48/102/40 47/18/40 82/17/40
f 13/8/70 8/7/70 50/86/70 56/97/70
f 56/97/71 50/86/71 51/87/71 57/99/71
f 57/99/72 51/87/72 52/10/72 58/9/72
f 10/89/73 2/106/73 44/107/73 62/90/73
f 62/90/74 44/107/74 45/108/74 63/92/74
f 63/92/75 45/108/75 46/2/75 64/1/75
o Cube.001_Cube
v 9.712063 -0.937441 -7.821623
v 9.712063 0.050017 -7.821623
v 11.281471 -1.249317 -5.697823
v 11.234710 -0.079806 -5.847095
v 6.954378 -1.080270 -5.960002
v 7.953176 0.050017 -6.735193
v 9.065152 -1.240094 -4.381743
v 8.385132 0.179895 -3.984402
v 10.689604 -1.249317 -2.898009
v 11.529709 -1.249317 -3.416925
v 11.420798 0.269408 -4.978250
v 10.159099 0.334934 -4.190439
v 8.884619 -1.249317 -7.699220
v 8.044515 -1.249317 -7.180304
v 8.044515 0.165613 -7.180304
v 8.884619 0.165613 -7.699220
v 10.762555 -1.249317 -6.537927
v 10.243640 -1.249317 -7.378031
v 9.737671 0.165613 -7.065505
v 10.776192 0.154607 -6.358272
v 8.100485 -1.128525 -4.868388
v 8.347740 -1.102392 -4.965183
v 7.699064 -0.012030 -4.833243
v 8.229295 0.165613 -6.133810
v 8.902666 0.911787 -5.338957
v 8.563431 0.165613 -6.340199
v 10.289809 0.849479 -5.207248
v 9.403535 0.165613 -6.859115
v 9.922451 -1.249317 -6.019011
v 9.403535 -1.249317 -6.859115
v 9.082347 -1.249317 -5.500095
v 8.563431 -1.249317 -6.340199
v 9.724724 -0.777673 -8.218136
v 9.724724 -0.306030 -8.218136
v 12.086764 -0.327762 -5.037208
v 11.928916 -0.836770 -5.693663
v 8.235603 -0.365213 -3.954972
v 8.761158 -0.777673 -4.141074
v 7.204411 -0.306030 -6.661387
v 6.874486 -0.764017 -6.713018
v 7.501390 -0.432240 -7.724823
v 7.501390 -0.903883 -7.724823
v 8.341495 -0.432240 -8.243738
v 8.341495 -0.903883 -8.243738
v 11.370832 0.173679 -4.461450
v 11.878581 -0.790391 -4.297101
v 10.689604 -0.306030 -2.898009
v 10.689604 -0.777673 -2.898009
v 7.540146 -0.415075 -5.117420
v 8.020894 -0.801270 -4.954678
v 7.723326 -0.306030 -5.821283
v 7.184189 -0.901784 -5.605170
v 10.243640 -0.306030 -7.378031
v 10.891084 -0.836770 -7.373872
v 10.762555 -0.306030 -6.537927
v 11.410000 -0.836770 -6.533768
vt 0.541667 0.166667
vt 0.625000 0.166667
vt 0.625000 0.250000
vt 0.541667 0.250000
vt 0.541667 0.416667
vt 0.625000 0.416667
vt 0.625000 0.500000
vt 0.541667 0.500000
vt 0.541667 0.666667
vt 0.625000 0.666667
vt 0.625000 0.750000
vt 0.541667 0.750000
vt 0.541667 0.916667
vt 0.625000 0.916667
vt 0.625000 1.000000
vt 0.541667 1.000000
vt 0.291667 0.666667
vt 0.375000 0.666667
vt 0.375000 0.750000
vt 0.291667 0.750000
vt 0.791667 0.666667
vt 0.875000 0.666667
vt 0.875000 0.750000
vt 0.791667 0.750000
vt 0.708333 0.666667
vt 0.708333 0.750000
vt 0.125000 0.666667
vt 0.208333 0.666667
vt 0.208333 0.750000
vt 0.125000 0.750000
vt 0.625000 0.833333
vt 0.541667 0.833333
vt 0.625000 0.333333
vt 0.541667 0.333333
vt 0.208333 0.500000
vt 0.291667 0.500000
vt 0.291667 0.583333
vt 0.208333 0.583333
vt 0.125000 0.500000
vt 0.125000 0.583333
vt 0.708333 0.500000
vt 0.791667 0.500000
vt 0.791667 0.583333
vt 0.708333 0.583333
vt 0.625000 0.583333
vt 0.875000 0.500000
vt 0.875000 0.583333
vt 0.375000 0.500000
vt 0.375000 0.583333
vt 0.541667 0.583333
vt 0.541667 0.000000
vt 0.625000 0.000000
vt 0.625000 0.083333
vt 0.541667 0.083333
vt 0.375000 0.083333
vt 0.458333 0.083333
vt 0.458333 0.166667
vt 0.375000 0.166667
vt 0.375000 0.000000
vt 0.458333 0.000000
vt 0.458333 0.583333
vt 0.458333 0.666667
vt 0.458333 0.500000
vt 0.375000 0.333333
vt 0.458333 0.333333
vt 0.458333 0.416667
vt 0.375000 0.416667
vt 0.375000 0.250000
vt 0.458333 0.250000
vt 0.375000 0.833333
vt 0.458333 0.833333
vt 0.458333 0.916667
vt 0.375000 0.916667
vt 0.458333 0.750000
vt 0.458333 1.000000
vt 0.375000 1.000000
vn 0.7281 0.3244 -0.6039
vn -0.1737 0.7076 0.6850
vn -0.4942 0.8448 0.2048
vn -0.0342 0.7114 -0.7019
vn -0.0917 -0.9943 0.0542
vn 0.0715 0.9928 -0.0963
vn -0.2090 0.9772 0.0369
vn 0.0000 1.0000 0.0000
vn 0.0680 -0.9553 -0.2877
vn 0.0000 -1.0000 0.0000
vn -0.5520 0.8206 -0.1479
vn -0.3279 0.7814 -0.5309
vn 0.6445 0.7384 -0.1984
vn 0.1958 0.9253 0.3248
vn 0.1565 0.8730 0.4619
vn -0.0541 0.8892 -0.4543
vn -0.2285 0.8904 0.3938
vn -0.5793 0.7789 -0.2404
vn 0.5457 0.7747 -0.3193
vn 0.1458 0.9136 -0.3795
vn -0.0689 -0.9976 0.0072
vn -0.0600 -0.9935 0.0968
vn -0.8250 0.1200 0.5523
vn -0.7839 0.5896 -0.1947
vn 0.6853 0.6713 -0.2824
vn 0.5669 0.5983 -0.5663
vn 0.5113 -0.7993 -0.3158
vn 0.5915 0.7187 -0.3654
vn 0.2911 -0.7462 -0.5987
vn 0.6498 0.4171 -0.6355
vn -0.4627 0.1191 0.8785
vn -0.8788 0.2164 0.4254
vn -0.5590 -0.6366 0.5313
vn -0.5552 -0.7121 0.4298
vn 0.6328 0.3935 0.6669
vn 0.7721 0.3349 0.5402
vn 0.6456 -0.7633 -0.0251
vn 0.9364 0.1112 0.3329
vn -0.2202 -0.9080 -0.3564
vn -0.5255 0.0000 -0.8508
vn -0.4487 -0.8647 -0.2255
vn -0.8481 0.3243 -0.4191
vn 0.1426 -0.8363 -0.5294
vn 0.0185 0.0000 -0.9998
vn -0.8345 -0.0202 0.5506
vn -0.6982 0.6292 0.3415
vn -0.5654 -0.3735 0.7354
vn -0.4177 -0.4181 0.8067
vn 0.6292 0.6035 -0.4898
usemtl Rock
s off
f 137/109/76 102/110/76 86/111/76 117/112/76
f 129/113/77 94/114/77 90/115/77 119/116/77
f 133/117/78 106/118/78 88/119/78 121/120/78
f 125/121/79 98/122/79 84/123/79 116/124/79
f 114/125/80 103/126/80 87/127/80 96/128/80
f 110/129/81 101/130/81 84/131/81 98/132/81
f 106/118/82 108/133/82 97/134/82 88/119/82
f 108/133/83 110/129/83 98/132/83 97/134/83
f 100/135/84 112/136/84 95/137/84 83/138/84
f 112/136/85 114/125/85 96/128/85 95/137/85
f 121/120/86 88/119/86 97/139/86 123/140/86
f 123/140/87 97/139/87 98/122/87 125/121/87
f 117/112/88 86/111/88 93/141/88 127/142/88
f 127/142/89 93/141/89 94/114/89 129/113/89
f 92/143/85 91/144/85 113/145/85 111/146/85
f 111/146/85 113/145/85 114/125/85 112/136/85
f 85/147/85 92/143/85 111/146/85 99/148/85
f 99/148/85 111/146/85 112/136/85 100/135/85
f 94/149/90 93/150/90 109/151/90 107/152/90
f 107/152/91 109/151/91 110/129/91 108/133/91
f 90/115/92 94/149/92 107/152/92 105/153/92
f 105/153/93 107/152/93 108/133/93 106/118/93
f 93/150/94 86/154/94 102/155/94 109/151/94
f 109/151/95 102/155/95 101/130/95 110/129/95
f 91/144/96 89/156/96 104/157/96 113/145/96
f 113/145/97 104/157/97 103/126/97 114/125/97
f 119/116/98 90/115/98 105/153/98 131/158/98
f 131/158/99 105/153/99 106/118/99 133/117/99
f 116/159/100 84/160/100 101/161/100 135/162/100
f 135/162/101 101/161/101 102/110/101 137/109/101
f 100/163/102 136/164/102 138/165/102 99/166/102
f 136/164/103 135/162/103 137/109/103 138/165/103
f 83/167/104 115/168/104 136/164/104 100/163/104
f 115/168/105 116/159/105 135/162/105 136/164/105
f 104/157/106 132/169/106 134/170/106 103/126/106
f 132/169/107 131/158/107 133/117/107 134/170/107
f 89/156/108 120/171/108 132/169/108 104/157/108
f 120/171/109 119/116/109 131/158/109 132/169/109
f 92/172/110 128/173/110 130/174/110 91/175/110
f 128/173/111 127/142/111 129/113/111 130/174/111
f 85/176/112 118/177/112 128/173/112 92/172/112
f 118/177/113 117/112/113 127/142/113 128/173/113
f 96/178/114 124/179/114 126/180/114 95/181/114
f 124/179/115 123/140/115 125/121/115 126/180/115
f 87/127/116 122/182/116 124/179/116 96/178/116
f 122/182/117 121/120/117 123/140/117 124/179/117
f 95/181/118 126/180/118 115/183/118 83/184/118
f 126/180/119 125/121/119 116/124/119 115/183/119
f 103/126/120 134/170/120 122/182/120 87/127/120
f 134/170/121 133/117/121 121/120/121 122/182/121
f 91/175/122 130/174/122 120/171/122 89/156/122
f 130/174/123 129/113/123 119/116/123 120/171/123
f 99/166/102 138/165/102 118/177/102 85/176/102
f 138/165/124 137/109/124 117/112/124 118/177/124
