# Blender v2.83.1 OBJ File: 'jurgens_sylvia_justingame_wizardtower.blend'
# www.blender.org
mtllib jurgens_sylvia_justingame_wizardtower.mtl
o Cube_Cube.009
v -7.964016 -1.266639 1.114375
v -7.975902 10.479862 1.127521
v -7.964016 -1.266639 -1.821738
v -7.975902 10.479862 -1.834883
v -5.309434 -1.266639 1.114375
v -5.297549 10.479862 1.127521
v -5.309434 -1.266639 -1.821738
v -5.297549 10.479862 -1.834883
v -8.490583 -1.266639 -1.037170
v -8.519705 -1.266639 0.376906
v -8.152467 10.479862 0.205150
v -8.152467 10.479862 -0.912512
v -4.796328 -1.266639 0.376906
v -4.655122 -1.266639 -1.099968
v -5.120984 10.479862 -0.912512
v -5.120984 10.479862 0.205150
v -6.072235 -1.266639 -2.302009
v -7.242040 -1.266639 -2.302009
v -7.141973 10.479862 -2.030174
v -6.131478 10.479862 -2.030174
v -7.242040 -1.266639 1.579596
v -6.072235 -1.266639 1.579596
v -6.131478 10.479862 1.322811
v -7.141973 10.479862 1.322811
v -7.674775 10.479862 -1.501820
v -5.598677 10.479862 -1.501820
v -7.674775 10.479862 0.794458
v -5.598677 10.479862 0.794458
v -6.131478 -1.266639 -0.912512
v -7.141973 -1.266639 -0.912512
v -6.131478 -1.266639 0.205150
v -7.141973 -1.266639 0.205150
v -8.747259 -1.266639 -0.353681
v -8.451438 10.479862 -0.353681
v -4.526193 -1.266639 -0.353681
v -4.822013 10.479862 -0.353681
v -7.141973 -1.266639 -0.353681
v -6.131478 -1.266639 -0.353681
v -5.217508 10.479862 -0.353681
v -8.055945 10.479862 -0.353681
v -6.638484 -1.266639 -2.399434
v -6.636725 10.506226 -2.360644
v -6.638484 -1.266639 1.690774
v -6.636725 10.506226 1.653281
v -6.636727 10.506226 -1.923252
v -6.636727 10.506226 1.215889
v -6.636725 -1.266639 -0.912512
v -6.636725 -1.266639 0.205150
v -6.636725 15.704860 -0.353681
v -6.636725 -1.266639 -0.353681
v -7.956953 10.078629 1.106562
v -7.956953 10.078629 -1.813924
v -5.316498 10.078629 -1.813924
v -5.316498 10.078629 1.106562
v -5.120984 10.078629 -0.912512
v -5.120984 10.078629 0.205150
v -8.152467 10.078629 0.205150
v -8.152467 10.078629 -0.912512
v -6.131478 10.078629 1.322811
v -7.141973 10.078629 1.322811
v -7.141973 10.078629 -2.030174
v -6.131478 10.078629 -2.030174
v -8.451438 10.078629 -0.353681
v -4.822013 10.078629 -0.353681
v -6.636725 10.025902 -2.360644
v -6.636725 10.025902 1.653281
v -7.438578 10.108658 -1.240574
v -5.834872 10.108658 -1.240574
v -5.834872 10.108658 0.533212
v -5.627679 10.108658 -0.725701
v -5.627679 10.108658 0.018339
v -7.645771 10.108658 0.018339
v -7.645771 10.108658 -0.725701
v -6.300376 10.108658 0.762379
v -6.973074 10.108658 0.762379
v -6.973074 10.108658 -1.469741
v -6.300376 10.108658 -1.469741
v -7.645771 10.108658 -0.353681
v -5.627679 10.108658 -0.353681
v -6.636725 10.108658 -1.469741
v -6.636725 10.108658 0.762379
v -7.438578 10.108658 0.533212
v -7.474269 9.335961 -1.280051
v -5.799181 9.335961 -1.280051
v -5.799181 9.335961 0.572689
v -5.561616 9.335962 -0.751124
v -5.571208 9.335961 0.042695
v -7.705135 9.335961 0.042695
v -7.703157 9.335961 -0.746858
v -6.284880 9.335962 0.817890
v -6.991344 9.335960 0.817890
v -6.991344 9.335962 -1.526275
v -6.284880 9.335962 -1.526275
v -7.720592 9.335961 -0.353681
v -5.552858 9.335962 -0.353681
v -6.636845 9.335960 -1.532893
v -6.636845 9.335961 0.825442
v -7.474269 9.335961 0.572689
v -7.560692 7.464978 -1.375640
v -5.712758 7.464978 -1.375640
v -5.712758 7.464978 0.668277
v -5.401652 7.464979 -0.812683
v -5.434469 7.464978 0.101672
v -7.848878 7.464979 0.287649
v -7.842110 7.464978 -0.983699
v -6.247355 7.464979 0.952304
v -7.035583 7.464978 0.952304
v -7.035583 7.464979 -1.663164
v -6.247355 7.464979 -1.663164
v -7.901763 7.464978 -0.353681
v -5.371688 7.464979 -0.353681
v -6.637134 7.464978 -1.685807
v -6.637134 7.464979 0.978143
v -7.560693 7.464979 0.668277
v -7.540925 7.892926 0.646413
v -7.540925 7.892926 -1.353776
v -5.732525 7.892926 -1.353776
v -5.732525 7.892926 0.646413
v -5.438240 7.892927 -0.798602
v -5.465745 7.892926 0.088182
v -7.816000 7.892926 0.268588
v -7.810328 7.892926 -0.967142
v -6.255938 7.892927 0.921560
v -7.025464 7.892926 0.921560
v -7.025464 7.892927 -1.631854
v -6.255938 7.892926 -1.631854
v -7.860324 7.892926 -0.353681
v -5.413127 7.892927 -0.353681
v -6.637068 7.892926 -1.650831
v -6.637068 7.892926 0.943216
v -9.325135 7.906125 0.314323
v -9.358013 7.512733 0.335263
v -9.319463 7.906124 -1.043225
v -9.351246 7.512733 -1.061414
v -9.681273 7.906124 -0.368793
v -9.722713 7.512733 -0.368793
v -5.954261 9.176558 0.049981
v -5.969718 9.176558 -0.346395
v -5.952283 9.176558 -0.739573
v -6.065126 7.733522 0.275874
v -6.059453 7.733522 -0.959856
v -6.109450 7.733522 -0.346395
vt 0.616461 0.166667
vt 0.625000 0.166667
vt 0.625000 0.250000
vt 0.616461 0.250000
vt 0.616461 0.416667
vt 0.625000 0.416667
vt 0.625000 0.500000
vt 0.616461 0.500000
vt 0.616461 0.666667
vt 0.625000 0.666667
vt 0.625000 0.750000
vt 0.616461 0.750000
vt 0.616461 0.916667
vt 0.625000 0.916667
vt 0.625000 1.000000
vt 0.616461 1.000000
vt 0.291667 0.666667
vt 0.375000 0.666667
vt 0.375000 0.750000
vt 0.291667 0.750000
vt 0.791667 0.666667
vt 0.875000 0.666667
vt 0.875000 0.750000
vt 0.791667 0.750000
vt 0.791667 0.500000
vt 0.875000 0.500000
vt 0.875000 0.583333
vt 0.791667 0.583333
vt 0.791667 0.625000
vt 0.875000 0.625000
vt 0.291667 0.500000
vt 0.375000 0.500000
vt 0.375000 0.583333
vt 0.291667 0.583333
vt 0.291667 0.625000
vt 0.375000 0.625000
vt 0.625000 0.583333
vt 0.616461 0.583333
vt 0.616461 0.625000
vt 0.625000 0.625000
vt 0.616461 0.000000
vt 0.625000 0.000000
vt 0.625000 0.083333
vt 0.616461 0.083333
vt 0.616461 0.125000
vt 0.625000 0.125000
vt 0.125000 0.625000
vt 0.208333 0.625000
vt 0.208333 0.666667
vt 0.125000 0.666667
vt 0.250000 0.625000
vt 0.250000 0.666667
vt 0.125000 0.500000
vt 0.208333 0.500000
vt 0.208333 0.583333
vt 0.125000 0.583333
vt 0.250000 0.500000
vt 0.250000 0.583333
vt 0.708333 0.625000
vt 0.708333 0.666667
vt 0.750000 0.625000
vt 0.750000 0.666667
vt 0.708333 0.500000
vt 0.708333 0.583333
vt 0.750000 0.500000
vt 0.750000 0.583333
vt 0.708333 0.750000
vt 0.750000 0.750000
vt 0.208333 0.750000
vt 0.125000 0.750000
vt 0.250000 0.750000
vt 0.625000 0.833333
vt 0.616461 0.833333
vt 0.616461 0.875000
vt 0.625000 0.875000
vt 0.625000 0.333333
vt 0.616461 0.333333
vt 0.616461 0.375000
vt 0.625000 0.375000
vt 0.613287 0.833333
vt 0.613287 0.875000
vt 0.613287 0.333333
vt 0.613287 0.375000
vt 0.613287 0.583333
vt 0.613287 0.625000
vt 0.613287 0.083333
vt 0.613287 0.125000
vt 0.613287 0.416667
vt 0.613287 0.250000
vt 0.613287 0.916667
vt 0.613287 0.750000
vt 0.613287 0.166667
vt 0.613287 0.000000
vt 0.613287 0.666667
vt 0.613287 0.500000
vt 0.613287 1.000000
vt 0.597101 0.166667
vt 0.597101 0.250000
vt 0.597101 0.416667
vt 0.597101 0.500000
vt 0.597101 0.666667
vt 0.597101 0.750000
vt 0.597101 0.916667
vt 0.597101 1.000000
vt 0.597101 0.583333
vt 0.597101 0.625000
vt 0.597101 0.000000
vt 0.597101 0.083333
vt 0.597101 0.125000
vt 0.597101 0.833333
vt 0.597101 0.875000
vt 0.597101 0.333333
vt 0.597101 0.375000
vt 0.566872 0.833333
vt 0.566872 0.875000
vt 0.566872 0.333333
vt 0.566872 0.375000
vt 0.566872 0.583333
vt 0.566872 0.625000
vt 0.566872 0.125000
vt 0.566872 0.083333
vt 0.566872 0.083333
vt 0.566872 0.125000
vt 0.566872 0.416667
vt 0.566873 0.250000
vt 0.566872 0.916667
vt 0.566872 0.750000
vt 0.597101 0.125000
vt 0.597101 0.083333
vt 0.566873 0.000000
vt 0.566872 0.666667
vt 0.566872 0.500000
vt 0.566872 1.000000
vt 0.566872 0.166667
vt 0.375000 0.166667
vt 0.557908 0.166667
vt 0.557908 0.250000
vt 0.375000 0.250000
vt 0.375000 0.416667
vt 0.557908 0.416667
vt 0.557908 0.500000
vt 0.557908 0.666667
vt 0.557908 0.750000
vt 0.375000 0.916667
vt 0.557908 0.916667
vt 0.557908 1.000000
vt 0.375000 1.000000
vt 0.557908 0.583333
vt 0.557908 0.625000
vt 0.375000 0.000000
vt 0.557908 0.000000
vt 0.557908 0.083333
vt 0.375000 0.083333
vt 0.375000 0.125000
vt 0.557908 0.125000
vt 0.557908 0.833333
vt 0.375000 0.833333
vt 0.375000 0.875000
vt 0.557908 0.875000
vt 0.557908 0.333333
vt 0.375000 0.333333
vt 0.375000 0.375000
vt 0.557908 0.375000
vt 0.566872 0.083333
vt 0.557908 0.083333
vt 0.566872 0.125000
vt 0.557908 0.125000
vt 0.566872 0.166667
vt 0.557908 0.166667
vt 0.597101 0.166667
vt 0.566872 0.166667
vn -0.9794 -0.0283 -0.1998
vn 0.2420 -0.0310 -0.9698
vn 0.9794 -0.0283 0.1998
vn -0.2420 -0.0310 0.9698
vn 0.0000 -1.0000 0.0000
vn 0.0000 1.0000 -0.0000
vn 0.9794 -0.0283 -0.1998
vn 0.8817 0.0000 0.4717
vn -0.9794 -0.0283 0.1998
vn -0.8817 0.0000 -0.4717
vn -0.7139 0.2826 0.6407
vn -0.0467 0.9986 -0.0257
vn -0.0467 0.9986 0.0257
vn 0.2420 -0.0310 0.9698
vn -0.5474 0.0000 0.8369
vn -0.2420 -0.0310 -0.9698
vn 0.5474 0.0000 -0.8369
vn -0.7139 0.2826 -0.6407
vn -0.8817 0.0000 0.4717
vn 0.8817 0.0000 -0.4717
vn 0.7139 0.2826 -0.6407
vn -0.5474 0.0000 -0.8369
vn 0.5474 0.0000 0.8369
vn 0.0467 0.9986 0.0257
vn 0.0467 0.9986 -0.0257
vn 0.7139 0.2826 0.6407
vn 0.0306 -0.9962 -0.0810
vn -0.0306 -0.9962 0.0810
vn -0.0437 -0.9989 0.0140
vn 0.0437 -0.9989 -0.0140
vn 0.0306 -0.9962 0.0810
vn 0.0152 -0.9989 0.0437
vn -0.0306 -0.9962 -0.0810
vn -0.0152 -0.9989 -0.0437
vn 0.0437 -0.9989 0.0140
vn 0.0483 -0.9987 -0.0137
vn -0.0437 -0.9989 -0.0140
vn -0.0483 -0.9987 0.0137
vn 0.0152 -0.9989 -0.0437
vn -0.0483 -0.9987 -0.0137
vn -0.0152 -0.9989 0.0437
vn 0.0483 -0.9987 0.0137
vn -0.9210 0.0705 -0.3832
vn 0.4460 0.0702 -0.8923
vn 0.9208 0.0708 0.3835
vn -0.4462 0.0704 0.8921
vn 0.9173 0.0768 -0.3908
vn 0.9961 0.0850 0.0238
vn -0.9198 0.0725 0.3856
vn -0.9961 0.0855 -0.0227
vn 0.4452 0.0696 0.8927
vn -0.0109 0.0766 0.9970
vn -0.4470 0.0710 -0.8917
vn 0.0096 0.0773 -0.9970
vn -0.9960 0.0868 0.0200
vn 0.9958 0.0910 -0.0113
vn -0.0096 0.0773 -0.9970
vn 0.0109 0.0766 0.9970
vn 0.0397 0.0768 0.9963
vn -0.0343 0.0776 -0.9964
vn 0.9950 0.0914 -0.0400
vn 0.0907 0.9959 -0.0065
vn 0.0348 0.0775 -0.9964
vn -0.4638 0.0711 -0.8831
vn -0.0392 0.0769 0.9963
vn 0.4572 0.0696 0.8866
vn -0.0907 -0.9959 0.0035
vn -0.8688 0.1037 0.4842
vn 0.9928 0.0857 0.0841
vn 0.8951 0.0774 -0.4391
vn -0.4610 0.0705 0.8846
vn 0.9080 0.0712 0.4128
vn 0.4599 0.0702 -0.8852
vn -0.8748 0.1010 -0.4739
vn -0.8225 0.0657 -0.5649
vn 0.5080 0.0702 -0.8585
vn 0.8527 0.0722 0.5174
vn -0.5137 0.0705 0.8551
vn 0.7970 0.0776 -0.5989
vn 0.9592 0.0857 0.2693
vn -0.7964 0.0674 0.6010
vn -0.9688 0.0836 -0.2333
vn 0.4989 0.0696 0.8639
vn -0.1351 0.0774 0.9878
vn -0.5230 0.0710 -0.8494
vn 0.1242 0.0778 -0.9892
vn -0.9761 0.0858 0.1995
vn 0.9872 0.0921 -0.1301
vn -0.1186 0.0781 -0.9899
vn 0.1414 0.0771 0.9869
vn -0.8141 0.0749 -0.5759
vn 0.4703 0.0702 -0.8797
vn 0.8976 0.0715 0.4350
vn -0.4722 0.0705 0.8787
vn 0.8767 0.0777 -0.4747
vn 0.9882 0.0860 0.1271
vn -0.8004 0.0777 0.5944
vn 0.0318 0.0461 0.9984
vn 0.4661 0.0697 0.8820
vn -0.0601 0.0771 0.9952
vn -0.4764 0.0711 -0.8764
vn 0.0537 0.0776 -0.9955
vn 0.0079 1.0000 -0.0024
vn 0.9940 0.0916 -0.0606
vn -0.0527 0.0777 -0.9956
vn 0.0613 0.0770 0.9951
vn -0.8774 0.0925 -0.4707
vn -0.8833 0.0956 0.4590
vn -0.0284 -0.9996 -0.0093
vn 0.0516 0.0382 -0.9979
vn -0.0286 -0.9996 0.0089
vn 0.0079 1.0000 0.0025
vn -0.9942 0.0909 0.0583
vn -0.9937 0.0901 -0.0666
vn -0.0099 -0.1539 -0.9880
vn -0.0907 -0.9959 -0.0040
vn -0.0177 -0.1496 0.9886
vn 0.0906 0.9959 0.0074
usemtl None
s off
f 58/1/1 12/2/1 4/3/1 52/4/1
f 62/5/2 20/6/2 8/7/2 53/8/2
f 56/9/3 16/10/3 6/11/3 54/12/3
f 60/13/4 24/14/4 2/15/4 51/16/4
f 31/17/5 13/18/5 5/19/5 22/20/5
f 27/21/6 11/22/6 2/23/6 24/24/6
f 19/25/6 4/26/6 12/27/6 25/28/6
f 40/29/6 34/30/6 11/22/6 27/21/6
f 17/31/5 7/32/5 14/33/5 29/34/5
f 38/35/5 35/36/5 13/18/5 31/17/5
f 53/8/7 8/7/7 15/37/7 55/38/7
f 64/39/8 36/40/8 16/10/8 56/9/8
f 51/41/9 2/42/9 11/43/9 57/44/9
f 63/45/10 34/46/10 12/2/10 58/1/10
f 33/47/5 37/48/5 32/49/5 10/50/5
f 50/51/5 38/35/5 31/17/5 48/52/5
f 3/53/5 18/54/5 30/55/5 9/56/5
f 41/57/5 17/31/5 29/34/5 47/58/5
f 36/40/6 39/59/6 28/60/6 16/10/6
f 49/61/11 40/29/11 27/21/11 46/62/11
f 8/7/6 20/63/6 26/64/6 15/37/6
f 42/65/12 19/25/12 25/28/12 45/66/12
f 16/10/6 28/60/6 23/67/6 6/11/6
f 46/62/13 27/21/13 24/24/13 44/68/13
f 10/50/5 32/49/5 21/69/5 1/70/5
f 48/52/5 31/17/5 22/20/5 43/71/5
f 54/12/14 6/11/14 23/72/14 59/73/14
f 66/74/15 44/75/15 24/14/15 60/13/15
f 52/4/16 4/3/16 19/76/16 61/77/16
f 65/78/17 42/79/17 20/6/17 62/5/17
f 45/66/18 25/28/18 40/29/18 49/61/18
f 15/37/6 26/64/6 39/59/6 36/40/6
f 47/58/5 29/34/5 38/35/5 50/51/5
f 9/56/5 30/55/5 37/48/5 33/47/5
f 57/44/19 11/43/19 34/46/19 63/45/19
f 55/38/20 15/37/20 36/40/20 64/39/20
f 29/34/5 14/33/5 35/36/5 38/35/5
f 25/28/6 12/27/6 34/30/6 40/29/6
f 30/55/5 47/58/5 50/51/5 37/48/5
f 26/64/21 45/66/21 49/61/21 39/59/21
f 61/77/22 19/76/22 42/79/22 65/78/22
f 59/73/23 23/72/23 44/75/23 66/74/23
f 32/49/5 48/52/5 43/71/5 21/69/5
f 28/60/24 46/62/24 44/68/24 23/67/24
f 20/63/25 42/65/25 45/66/25 26/64/25
f 39/59/26 49/61/26 46/62/26 28/60/26
f 18/54/5 41/57/5 47/58/5 30/55/5
f 37/48/5 50/51/5 48/52/5 32/49/5
f 74/80/27 59/73/27 66/74/27 81/81/27
f 76/82/28 61/77/28 65/78/28 80/83/28
f 70/84/29 55/38/29 64/39/29 79/85/29
f 72/86/30 57/44/30 63/45/30 78/87/30
f 80/83/31 65/78/31 62/5/31 77/88/31
f 67/89/32 52/4/32 61/77/32 76/82/32
f 81/81/33 66/74/33 60/13/33 75/90/33
f 69/91/34 54/12/34 59/73/34 74/80/34
f 78/87/35 63/45/35 58/1/35 73/92/35
f 82/93/36 51/41/36 57/44/36 72/86/36
f 79/85/37 64/39/37 56/9/37 71/94/37
f 68/95/38 53/8/38 55/38/38 70/84/38
f 75/90/39 60/13/39 51/16/39 82/96/39
f 71/94/40 56/9/40 54/12/40 69/91/40
f 77/88/41 62/5/41 53/8/41 68/95/41
f 73/92/42 58/1/42 52/4/42 67/89/42
f 89/97/43 73/92/43 67/89/43 83/98/43
f 93/99/44 77/88/44 68/95/44 84/100/44
f 87/101/45 71/94/45 69/91/45 85/102/45
f 91/103/46 75/90/46 82/96/46 98/104/46
f 84/100/47 68/95/47 70/84/47 86/105/47
f 95/106/48 79/85/48 71/94/48 87/101/48
f 98/107/49 82/93/49 72/86/49 88/108/49
f 94/109/50 78/87/50 73/92/50 89/97/50
f 85/102/51 69/91/51 74/80/51 90/110/51
f 97/111/52 81/81/52 75/90/52 91/103/52
f 83/98/53 67/89/53 76/82/53 92/112/53
f 96/113/54 80/83/54 77/88/54 93/99/54
f 88/108/55 72/86/55 78/87/55 94/109/55
f 86/105/56 70/84/56 79/85/56 95/106/56
f 92/112/57 76/82/57 80/83/57 96/113/57
f 90/110/58 74/80/58 81/81/58 97/111/58
f 123/114/59 90/110/59 97/111/59 130/115/59
f 125/116/60 92/112/60 96/113/60 129/117/60
f 119/118/61 86/105/61 95/106/61 128/119/61
f 127/120/62 121/121/62 140/122/62 142/123/62
f 129/117/63 96/113/63 93/99/63 126/124/63
f 116/125/64 83/98/64 92/112/64 125/116/64
f 130/115/65 97/111/65 91/103/65 124/126/65
f 118/127/66 85/102/66 90/110/66 123/114/66
f 88/108/67 94/109/67 138/128/67 137/129/67
f 115/130/68 98/107/68 88/108/68 121/121/68
f 128/119/69 95/106/69 87/101/69 120/131/69
f 117/132/70 84/100/70 86/105/70 119/118/70
f 124/126/71 91/103/71 98/104/71 115/133/71
f 120/131/72 87/101/72 85/102/72 118/127/72
f 126/124/73 93/99/73 84/100/73 117/132/73
f 122/134/74 89/97/74 83/98/74 116/125/74
f 9/135/75 105/136/75 99/137/75 3/138/75
f 17/139/76 109/140/76 100/141/76 7/32/76
f 13/18/77 103/142/77 101/143/77 5/19/77
f 21/144/78 107/145/78 114/146/78 1/147/78
f 7/32/79 100/141/79 102/148/79 14/33/79
f 35/36/80 111/149/80 103/142/80 13/18/80
f 1/150/81 114/151/81 104/152/81 10/153/81
f 33/154/82 110/155/82 105/136/82 9/135/82
f 5/19/83 101/143/83 106/156/83 22/157/83
f 43/158/84 113/159/84 107/145/84 21/144/84
f 3/138/85 99/137/85 108/160/85 18/161/85
f 41/162/86 112/163/86 109/140/86 17/139/86
f 10/153/87 104/152/87 110/155/87 33/154/87
f 14/33/88 102/148/88 111/149/88 35/36/88
f 18/161/89 108/160/89 112/163/89 41/162/89
f 22/157/90 106/156/90 113/159/90 43/158/90
f 105/136/91 122/134/91 116/125/91 99/137/91
f 109/140/92 126/124/92 117/132/92 100/141/92
f 103/142/93 120/131/93 118/127/93 101/143/93
f 107/145/94 124/126/94 115/133/94 114/146/94
f 100/141/95 117/132/95 119/118/95 102/148/95
f 111/149/96 128/119/96 120/131/96 103/142/96
f 114/151/97 115/130/97 121/121/97 104/152/97
f 104/152/98 121/121/98 131/164/98 132/165/98
f 101/143/99 118/127/99 123/114/99 106/156/99
f 113/159/100 130/115/100 124/126/100 107/145/100
f 99/137/101 116/125/101 125/116/101 108/160/101
f 112/163/102 129/117/102 126/124/102 109/140/102
f 121/121/103 127/120/103 135/166/103 131/164/103
f 102/148/104 119/118/104 128/119/104 111/149/104
f 108/160/105 125/116/105 129/117/105 112/163/105
f 106/156/106 123/114/106 130/115/106 113/159/106
f 136/167/107 135/166/107 133/168/107 134/169/107
f 132/165/108 131/164/108 135/166/108 136/167/108
f 105/136/109 110/155/109 136/167/109 134/169/109
f 122/134/110 105/136/110 134/169/110 133/168/110
f 110/155/111 104/152/111 132/165/111 136/167/111
f 127/120/112 122/134/112 133/168/112 135/166/112
f 140/122/113 137/129/113 138/128/113 142/123/113
f 142/123/114 138/128/114 139/170/114 141/171/114
f 121/121/115 88/108/115 137/129/115 140/122/115
f 94/109/116 89/97/116 139/170/116 138/128/116
f 89/97/117 122/134/117 141/171/117 139/170/117
f 122/134/118 127/120/118 142/123/118 141/171/118
